<mxfile host="Electron" modified="2025-06-03T16:16:31.726Z" agent="Mozilla/5.0 (Windows NT 10.0; Win64; x64) AppleWebKit/537.36 (KHTML, like Gecko) draw.io/24.2.5 Chrome/120.0.6099.109 Electron/28.1.0 Safari/537.36" etag="zRM3VigtSKcIiepzWhKE" version="24.2.5" type="device">
  <diagram name="Page-1" id="Kfh8t_Ak4ihm8aRNfu7Z">
    <mxGraphModel dx="1948" dy="802" grid="1" gridSize="10" guides="1" tooltips="1" connect="1" arrows="1" fold="1" page="1" pageScale="1" pageWidth="850" pageHeight="1100" math="0" shadow="0">
      <root>
        <mxCell id="0" />
        <mxCell id="1" parent="0" />
        <mxCell id="c1rJkUWi-FsTONenb21p-275" value="" style="sketch=0;points=[[0.5,0,0],[1,0.5,0],[0.5,1,0],[0,0.5,0],[0.145,0.145,0],[0.8555,0.145,0],[0.855,0.8555,0],[0.145,0.855,0]];verticalLabelPosition=bottom;html=1;verticalAlign=top;aspect=fixed;align=center;pointerEvents=1;shape=mxgraph.cisco19.rect;prIcon=router;fillColor=#FAFAFA;strokeColor=#005073;" parent="1" vertex="1">
          <mxGeometry x="-340" y="280" width="130" height="130" as="geometry" />
        </mxCell>
        <mxCell id="c1rJkUWi-FsTONenb21p-277" value="" style="image;points=[];aspect=fixed;html=1;align=center;shadow=0;dashed=0;image=img/lib/allied_telesis/computer_and_terminals/Personal_Computer.svg;" parent="1" vertex="1">
          <mxGeometry x="600" y="80" width="132.82" height="180" as="geometry" />
        </mxCell>
        <mxCell id="c1rJkUWi-FsTONenb21p-278" value="" style="image;points=[];aspect=fixed;html=1;align=center;shadow=0;dashed=0;image=img/lib/allied_telesis/computer_and_terminals/Personal_Computer.svg;" parent="1" vertex="1">
          <mxGeometry x="590" y="430" width="132.82" height="180" as="geometry" />
        </mxCell>
        <mxCell id="c1rJkUWi-FsTONenb21p-279" value="" style="endArrow=classic;html=1;rounded=0;exitX=0.5;exitY=1;exitDx=0;exitDy=0;" parent="1" source="OEtIv18NF1MfXvZT3ipg-3" target="c1rJkUWi-FsTONenb21p-278" edge="1">
          <mxGeometry width="50" height="50" relative="1" as="geometry">
            <mxPoint x="120" y="430" as="sourcePoint" />
            <mxPoint x="530" y="546.1237861237862" as="targetPoint" />
            <Array as="points">
              <mxPoint x="120" y="520" />
            </Array>
          </mxGeometry>
        </mxCell>
        <mxCell id="c1rJkUWi-FsTONenb21p-280" value="" style="endArrow=classic;html=1;rounded=0;exitX=0.5;exitY=0;exitDx=0;exitDy=0;" parent="1" source="OEtIv18NF1MfXvZT3ipg-3" target="c1rJkUWi-FsTONenb21p-277" edge="1">
          <mxGeometry width="50" height="50" relative="1" as="geometry">
            <mxPoint x="120" y="270" as="sourcePoint" />
            <mxPoint x="449.85" y="79.99528133329434" as="targetPoint" />
            <Array as="points">
              <mxPoint x="120" y="170" />
            </Array>
          </mxGeometry>
        </mxCell>
        <mxCell id="c1rJkUWi-FsTONenb21p-283" value="&lt;font style=&quot;font-size: 19px;&quot;&gt;g0/2&lt;/font&gt;&lt;div style=&quot;font-size: 19px;&quot;&gt;&lt;font style=&quot;font-size: 19px;&quot;&gt;IP: 172.16.0.200/16&amp;nbsp;&lt;/font&gt;&lt;/div&gt;" style="text;html=1;align=center;verticalAlign=middle;resizable=0;points=[];autosize=1;strokeColor=none;fillColor=none;" parent="1" vertex="1">
          <mxGeometry x="425" y="450" width="190" height="60" as="geometry" />
        </mxCell>
        <mxCell id="c1rJkUWi-FsTONenb21p-284" value="&lt;font style=&quot;font-size: 19px;&quot;&gt;g0/0&lt;/font&gt;&lt;div style=&quot;font-size: 19px;&quot;&gt;&lt;font style=&quot;font-size: 19px;&quot;&gt;IP: 10.0.0.100/8&amp;nbsp;&lt;/font&gt;&lt;/div&gt;" style="text;html=1;align=center;verticalAlign=middle;resizable=0;points=[];autosize=1;strokeColor=none;fillColor=none;" parent="1" vertex="1">
          <mxGeometry x="440" y="100" width="160" height="60" as="geometry" />
        </mxCell>
        <mxCell id="c1rJkUWi-FsTONenb21p-285" value="&lt;span style=&quot;font-size: 19px;&quot;&gt;Router 3&lt;/span&gt;&lt;div&gt;&lt;span style=&quot;font-size: 19px;&quot;&gt;(InterVLAN Routing)&lt;/span&gt;&lt;/div&gt;&lt;div&gt;&lt;span style=&quot;font-size: 19px;&quot;&gt;&lt;br&gt;&lt;/span&gt;&lt;/div&gt;&lt;div&gt;&lt;span style=&quot;font-size: 19px;&quot;&gt;&lt;b&gt;&lt;u&gt;Routing Table&lt;/u&gt;&lt;/b&gt;&lt;/span&gt;&lt;/div&gt;&lt;div&gt;&lt;span style=&quot;font-size: 19px;&quot;&gt;10.0.0.0/8 via g1/1&lt;/span&gt;&lt;/div&gt;&lt;div&gt;&lt;span style=&quot;font-size: 19px;&quot;&gt;172.16.0.0/16 via g0/2&lt;/span&gt;&lt;/div&gt;" style="text;html=1;align=center;verticalAlign=middle;resizable=0;points=[];autosize=1;strokeColor=none;fillColor=none;" parent="1" vertex="1">
          <mxGeometry x="-580" y="260" width="210" height="150" as="geometry" />
        </mxCell>
        <mxCell id="OEtIv18NF1MfXvZT3ipg-1" value="&lt;font style=&quot;font-size: 16px;&quot;&gt;Router 1&amp;nbsp;&lt;/font&gt;&lt;div style=&quot;font-size: 16px;&quot;&gt;&lt;font style=&quot;font-size: 16px;&quot;&gt;(Host in Vlan 1)&lt;/font&gt;&lt;/div&gt;&lt;div style=&quot;font-size: 16px;&quot;&gt;&lt;font style=&quot;font-size: 16px;&quot;&gt;Default gateway: 10.0.0.1&lt;/font&gt;&lt;/div&gt;" style="text;html=1;align=center;verticalAlign=middle;resizable=0;points=[];autosize=1;strokeColor=none;fillColor=none;" vertex="1" parent="1">
          <mxGeometry x="570" y="270" width="200" height="70" as="geometry" />
        </mxCell>
        <mxCell id="OEtIv18NF1MfXvZT3ipg-2" value="&lt;font style=&quot;font-size: 16px;&quot;&gt;Router 2&amp;nbsp;&lt;/font&gt;&lt;div style=&quot;font-size: 16px;&quot;&gt;&lt;font style=&quot;font-size: 16px;&quot;&gt;(Host in Vlan 2)&lt;/font&gt;&lt;/div&gt;&lt;div style=&quot;font-size: 16px;&quot;&gt;&lt;font style=&quot;font-size: 16px;&quot;&gt;Default gateway: 172.16.0.1&lt;/font&gt;&lt;/div&gt;" style="text;html=1;align=center;verticalAlign=middle;resizable=0;points=[];autosize=1;strokeColor=none;fillColor=none;" vertex="1" parent="1">
          <mxGeometry x="546.41" y="630" width="220" height="70" as="geometry" />
        </mxCell>
        <mxCell id="OEtIv18NF1MfXvZT3ipg-3" value="&lt;font style=&quot;font-size: 19px;&quot;&gt;Switch 1&lt;/font&gt;" style="rounded=0;whiteSpace=wrap;html=1;" vertex="1" parent="1">
          <mxGeometry y="280" width="240" height="130" as="geometry" />
        </mxCell>
        <mxCell id="OEtIv18NF1MfXvZT3ipg-4" value="" style="endArrow=none;html=1;rounded=0;exitX=1;exitY=0.5;exitDx=0;exitDy=0;exitPerimeter=0;entryX=0;entryY=0.5;entryDx=0;entryDy=0;strokeWidth=13;" edge="1" parent="1" source="c1rJkUWi-FsTONenb21p-275" target="OEtIv18NF1MfXvZT3ipg-3">
          <mxGeometry width="50" height="50" relative="1" as="geometry">
            <mxPoint x="80" y="440" as="sourcePoint" />
            <mxPoint x="130" y="390" as="targetPoint" />
          </mxGeometry>
        </mxCell>
        <mxCell id="OEtIv18NF1MfXvZT3ipg-6" value="&lt;font color=&quot;#33ffff&quot;&gt;VLAN 2&lt;/font&gt;" style="text;html=1;align=center;verticalAlign=middle;resizable=0;points=[];autosize=1;strokeColor=none;fillColor=none;" vertex="1" parent="1">
          <mxGeometry x="170" y="370" width="60" height="30" as="geometry" />
        </mxCell>
        <mxCell id="OEtIv18NF1MfXvZT3ipg-7" value="" style="rounded=0;whiteSpace=wrap;html=1;dashed=1;dashPattern=1 2;fillColor=none;strokeWidth=3;strokeColor=#33FFFF;" vertex="1" parent="1">
          <mxGeometry x="160" y="370" width="630" height="360" as="geometry" />
        </mxCell>
        <mxCell id="OEtIv18NF1MfXvZT3ipg-8" value="" style="rounded=0;whiteSpace=wrap;html=1;dashed=1;dashPattern=1 2;fillColor=none;strokeWidth=3;strokeColor=#FF0000;" vertex="1" parent="1">
          <mxGeometry x="170" y="70" width="630" height="270" as="geometry" />
        </mxCell>
        <mxCell id="OEtIv18NF1MfXvZT3ipg-9" value="&lt;font color=&quot;#ff0000&quot;&gt;VLAN 1&lt;/font&gt;" style="text;html=1;align=center;verticalAlign=middle;resizable=0;points=[];autosize=1;strokeColor=none;fillColor=none;" vertex="1" parent="1">
          <mxGeometry x="170" y="290" width="60" height="30" as="geometry" />
        </mxCell>
        <mxCell id="OEtIv18NF1MfXvZT3ipg-10" value="&lt;font style=&quot;font-size: 17px;&quot;&gt;802.1Q Trunk&lt;/font&gt;" style="text;html=1;align=center;verticalAlign=middle;resizable=0;points=[];autosize=1;strokeColor=none;fillColor=none;" vertex="1" parent="1">
          <mxGeometry x="-185" y="370" width="130" height="30" as="geometry" />
        </mxCell>
        <mxCell id="OEtIv18NF1MfXvZT3ipg-11" value="g0/0" style="text;html=1;align=center;verticalAlign=middle;resizable=0;points=[];autosize=1;strokeColor=none;fillColor=none;" vertex="1" parent="1">
          <mxGeometry x="-50" y="350" width="50" height="30" as="geometry" />
        </mxCell>
        <mxCell id="OEtIv18NF1MfXvZT3ipg-12" value="g1/1" style="text;html=1;align=center;verticalAlign=middle;resizable=0;points=[];autosize=1;strokeColor=none;fillColor=none;" vertex="1" parent="1">
          <mxGeometry x="60" y="240" width="50" height="30" as="geometry" />
        </mxCell>
        <mxCell id="OEtIv18NF1MfXvZT3ipg-13" value="g0/2" style="text;html=1;align=center;verticalAlign=middle;resizable=0;points=[];autosize=1;strokeColor=none;fillColor=none;" vertex="1" parent="1">
          <mxGeometry x="70" y="420" width="50" height="30" as="geometry" />
        </mxCell>
        <mxCell id="OEtIv18NF1MfXvZT3ipg-14" value="&lt;font style=&quot;font-size: 17px;&quot;&gt;g0/0.1&lt;/font&gt;&lt;div&gt;&lt;font style=&quot;font-size: 17px;&quot;&gt;VLAN 1 (Native)&lt;/font&gt;&lt;/div&gt;&lt;div&gt;&lt;span style=&quot;font-size: 17px;&quot;&gt;IP 10.0.0.1/8&lt;/span&gt;&lt;/div&gt;&lt;div&gt;&lt;span style=&quot;font-size: 17px;&quot;&gt;&lt;br&gt;&lt;/span&gt;&lt;/div&gt;&lt;div&gt;&lt;font style=&quot;font-size: 17px;&quot;&gt;g0/0.2&lt;/font&gt;&lt;div&gt;&lt;font style=&quot;font-size: 17px;&quot;&gt;VLAN 1 (Native)&lt;/font&gt;&lt;/div&gt;&lt;div&gt;&lt;span style=&quot;font-size: 17px;&quot;&gt;IP 172.16.0.1/16&lt;/span&gt;&lt;/div&gt;&lt;/div&gt;" style="text;html=1;align=center;verticalAlign=middle;resizable=0;points=[];autosize=1;strokeColor=none;fillColor=none;" vertex="1" parent="1">
          <mxGeometry x="-185" y="150" width="150" height="160" as="geometry" />
        </mxCell>
        <mxCell id="OEtIv18NF1MfXvZT3ipg-15" value="" style="rounded=0;whiteSpace=wrap;html=1;dashed=1;dashPattern=1 2;fillColor=none;strokeWidth=3;strokeColor=#FF0000;" vertex="1" parent="1">
          <mxGeometry x="-180" y="150" width="140" height="70" as="geometry" />
        </mxCell>
        <mxCell id="OEtIv18NF1MfXvZT3ipg-16" value="" style="rounded=0;whiteSpace=wrap;html=1;dashed=1;dashPattern=1 2;fillColor=none;strokeWidth=3;strokeColor=#33FFFF;" vertex="1" parent="1">
          <mxGeometry x="-190" y="240" width="160" height="60" as="geometry" />
        </mxCell>
      </root>
    </mxGraphModel>
  </diagram>
</mxfile>
